<svg xmlns="http://www.w3.org/2000/svg" width="76" height="76"><path fill="#FDFCFD" d="M.009 0h75.982c.005 0 .009.004.009.009V75.99c0 .006-.004.01-.009.01H.009C.004 76 0 75.996 0 75.99V.009C0 .004.004 0 .009 0z"/><path fill="#757575" d="M75.99 0a.01.01 0 0 1 .01.01v75.981c0 .005-.005.009-.01.009H.009A.009.009 0 0 1 0 75.991L75.99 0z"/><path fill="#B9B9B9" d="M8.508 8.5h58.984l.008.008v58.983l-.008.009H8.508l-.008-.009V8.508z"/><g><path d="M35.999 55.5v-39H40v39h-4.001z"/><path fill="red" d="M40 13.875L19.375 27 40 40.125z"/><path d="M28.571 51.625h18.857v5.5H28.571z"/><path d="M20.222 56.459h35.555V63.5H20.222z"/></g></svg>