<svg width="1024" height="1024" xmlns="http://www.w3.org/2000/svg" xmlns:xlink="http://www.w3.org/1999/xlink"><defs><linearGradient x1="50%" y1="0%" x2="50%" y2="5%" id="prefix__c"><stop stop-color="#FFF" offset="0%"/><stop stop-color="#FFF" stop-opacity="0" offset="100%"/></linearGradient><linearGradient x1="50%" y1="0%" x2="50%" y2="100%" id="prefix__d"><stop stop-color="#FFF" offset="0%"/><stop stop-color="#FFF" offset="100%"/></linearGradient><linearGradient x1="50%" y1="0%" x2="50%" y2="100%" id="prefix__g"><stop stop-color="#F8F2E5" stop-opacity=".511" offset="0%"/><stop stop-color="#EFE2C7" offset="100%"/></linearGradient><linearGradient x1="50%" y1="0%" x2="50%" y2="100%" id="prefix__h"><stop stop-color="#1B75C0" offset="0%"/><stop stop-color="#2A567B" offset="100%"/></linearGradient><filter x="-50%" y="-50%" width="200%" height="200%" filterUnits="objectBoundingBox" id="prefix__a"><feOffset dy="22" in="SourceAlpha" result="shadowOffsetOuter1"/><feGaussianBlur stdDeviation="7.5" in="shadowOffsetOuter1" result="shadowBlurOuter1"/><feColorMatrix values="0 0 0 0 0 0 0 0 0 0 0 0 0 0 0 0 0 0 0.21 0" in="shadowBlurOuter1" result="shadowMatrixOuter1"/><feOffset in="SourceAlpha" result="shadowOffsetInner1"/><feGaussianBlur stdDeviation="15" in="shadowOffsetInner1" result="shadowBlurInner1"/><feComposite in="shadowBlurInner1" in2="SourceAlpha" operator="arithmetic" k2="-1" k3="1" result="shadowInnerInner1"/><feColorMatrix values="0 0 0 0 0 0 0 0 0 0 0 0 0 0 0 0 0 0 0.028 0" in="shadowInnerInner1" result="shadowMatrixInner1"/><feOffset dy="1" in="SourceAlpha" result="shadowOffsetInner2"/><feGaussianBlur in="shadowOffsetInner2" result="shadowBlurInner2"/><feComposite in="shadowBlurInner2" in2="SourceAlpha" operator="arithmetic" k2="-1" k3="1" result="shadowInnerInner2"/><feColorMatrix values="0 0 0 0 1 0 0 0 0 1 0 0 0 0 1 0 0 0 0.7 0" in="shadowInnerInner2" result="shadowMatrixInner2"/><feMorphology radius="1" in="SourceAlpha" operator="dilate" result="shadowSpreadInner3"/><feOffset in="shadowSpreadInner3" result="shadowOffsetInner3"/><feGaussianBlur in="shadowOffsetInner3" result="shadowBlurInner3"/><feComposite in="shadowBlurInner3" in2="SourceAlpha" operator="arithmetic" k2="-1" k3="1" result="shadowInnerInner3"/><feColorMatrix values="0 0 0 0 1 0 0 0 0 1 0 0 0 0 1 0 0 0 0.28 0" in="shadowInnerInner3" result="shadowMatrixInner3"/><feMerge><feMergeNode in="shadowMatrixOuter1"/><feMergeNode in="SourceGraphic"/><feMergeNode in="shadowMatrixInner1"/><feMergeNode in="shadowMatrixInner2"/><feMergeNode in="shadowMatrixInner3"/></feMerge></filter><filter x="-50%" y="-50%" width="200%" height="200%" filterUnits="objectBoundingBox" id="prefix__e"><feMorphology radius="1" in="SourceAlpha" operator="dilate" result="shadowSpreadOuter1"/><feOffset in="shadowSpreadOuter1" result="shadowOffsetOuter1"/><feGaussianBlur stdDeviation="1" in="shadowOffsetOuter1" result="shadowBlurOuter1"/><feColorMatrix values="0 0 0 0 1 0 0 0 0 1 0 0 0 0 1 0 0 0 0.35 0" in="shadowBlurOuter1" result="shadowMatrixOuter1"/><feOffset in="SourceAlpha" result="shadowOffsetInner1"/><feGaussianBlur stdDeviation="1.5" in="shadowOffsetInner1" result="shadowBlurInner1"/><feComposite in="shadowBlurInner1" in2="SourceAlpha" operator="arithmetic" k2="-1" k3="1" result="shadowInnerInner1"/><feColorMatrix values="0 0 0 0 0 0 0 0 0 0 0 0 0 0 0 0 0 0 0.35 0" in="shadowInnerInner1" result="shadowMatrixInner1"/><feMerge><feMergeNode in="shadowMatrixOuter1"/><feMergeNode in="SourceGraphic"/><feMergeNode in="shadowMatrixInner1"/></feMerge></filter><filter x="-50%" y="-50%" width="200%" height="200%" filterUnits="objectBoundingBox" id="prefix__i"><feMorphology radius="1" in="SourceAlpha" operator="dilate" result="shadowSpreadOuter1"/><feOffset dy="10" in="shadowSpreadOuter1" result="shadowOffsetOuter1"/><feGaussianBlur stdDeviation="2.5" in="shadowOffsetOuter1" result="shadowBlurOuter1"/><feColorMatrix values="0 0 0 0 0 0 0 0 0 0 0 0 0 0 0 0 0 0 0.28 0" in="shadowBlurOuter1" result="shadowMatrixOuter1"/><feMerge><feMergeNode in="shadowMatrixOuter1"/><feMergeNode in="SourceGraphic"/></feMerge></filter><ellipse id="prefix__b" cx="479.965" cy="479.481" rx="479.766" ry="479.757"/><ellipse id="prefix__f" cx="479.965" cy="479.481" rx="441.299" ry="441.291"/></defs><g fill="none" fill-rule="evenodd"><g filter="url(#prefix__a)" transform="translate(32 14)"><use fill="#D8D8D8" xlink:href="#prefix__b"/><use fill="url(#prefix__c)" xlink:href="#prefix__b"/></g><ellipse cx="441.299" cy="441.291" rx="441.299" ry="441.291" transform="translate(70.667 52.19)" fill="url(#prefix__d)"/><g filter="url(#prefix__e)" transform="translate(32 14)"><use xlink:href="#prefix__f"/><use fill="url(#prefix__g)" xlink:href="#prefix__f"/></g><g transform="translate(199.957 216.866)" stroke="url(#prefix__h)" filter="url(#prefix__i)" stroke-width="18" fill="url(#prefix__h)"><path d="M391.258 394.136l-.413-97.604c0-15.058-1.386-28.713-4.16-41.04-2.415-12.211-7.05-22.744-13.902-31.463-6.415-8.68-15.288-15.41-26.536-20.189-10.852-4.779-24.755-7.119-41.627-7.119-14.892 0-28.36 2.965-40.4 8.894-12.04 5.54-22.338 13.284-30.815 23.193-8.396 9.87-14.852 21.377-19.248 34.448-4.436 12.639-6.655 26.098-6.655 40.415v193.653h-12.04V301.291c0-14.279-1.227-27.777-3.644-40.417-1.98-12.678-6.02-23.757-12.04-33.314-6.02-9.461-14.497-16.99-25.35-22.53-10.851-5.52-24.952-8.309-42.22-8.309-15.29 0-29.764 3.24-42.2 10.341-12.517 6.73-23.516 16.253-32.348 28.132-8.476 11.508-15.05 24.968-19.883 40.416-4.436 15.45-5.697 31.766-5.697 48.854v172.86H0v-172.86c0-57.407 16.395-79.36 22.416-89.27 6.02-9.909 15.985-19.248 24.778-26.778 8.872-7.528 19.221-13.248 29.678-17.188 10.852-4.369 23.255-6.426 35.336-6.426 24.16-.78 44.24 5.365 60.321 18.453 16.516 12.679 27.33 30.273 33.746 52.86 6.06-21.378 17.942-38.6 35.607-51.69 17.705-13.068 38.577-19.623 62.738-19.623 18.931 0 34.576 2.79 47.054 8.33 12.476 5.578 22.496 13.283 30.14 23.153 7.645 9.558 13.07 21.222 16.319 35.11 3.208 13.46 4.832 28.478 4.832 45.137l.108 102.269c.16 15.145 1.093 28.605 5.714 39.694 5.227 12.288 12.278 22.587 21.07 30.896 9.27 7.96 19.725 13.89 31.37 17.79 12.08 3.629 24.754 5.383 38.022 5.383 18.537 0 34.777-3.353 48.876-10.065 14.061-7.176 25.745-16.423 34.973-27.931 9.624-11.86 16.873-25.554 21.744-41.04 4.793-15.41 7.209-31.64 7.209-48.687V191.98h12.041v172.86c0 39.937-8.43 57.476-8.43 57.476-5.624 23.797-21.574 42.922-40.823 58.332-18.931 15.488-45.012 23.19-75.59 23.19-16.08 0-30.972-2.185-44.637-6.515-13.228-4.76-24.913-11.663-34.972-20.755-9.625-9.556-17.27-21.066-22.934-34.524-3.842-10.144-4.793-21.066-5.426-33.198-.04-4.565-.04-9.987-.04-14.708l.018-.003h0zm104.309-289.795c0-7.51 6.218-13.595 13.822-13.595 7.644 0 13.822 6.085 13.822 13.595 0 7.53-6.178 13.615-13.822 13.615-7.604 0-13.822-6.085-13.822-13.615zm-69.344-76.045c-25.062 20.354-38.31 48.856-38.31 82.424h10.945c0-65.388 55.41-99.6 110.144-99.6 27.788 0 53.389 8.707 72.088 24.517 21.08 17.824 32.223 43.787 32.223 75.083h10.944c0-34.536-12.462-63.327-36.039-83.262C567.536 9.97 539.404.34 509.002.34c-30.732 0-60.903 10.19-82.779 27.956z"/></g></g></svg>